OptimisticAI_Journey.glyphspackage
{
glyphname = exclam;
layers = (
{
layerId = m001;
shapes = (
{
closed = 1;
nodes = (
(170,420,l),
(145,1460,l),
(380,1460,l),
(356,420,l)
);
},
{
closed = 1;
nodes = (
(322,-23,o),
(204,-23,o),
(123,57,o),
(123,176,o),
(204,256,o),
(322,256,o),
(402,176,o),
(402,57,o)
);
}
);
width = 526;
}
);
unicode = 33;
}
{
glyphname = dollar;
layers = (
{
layerId = m001;
shapes = (
{
closed = 1;
nodes = (
(301,1,o),
(57,208,o),
(33,392,q),
(263,392,l),
(287,198,o),
(514,168,q),
(514,623,l),
(454,636,ls),
(275,674,o),
(77,878,o),
(77,1020,qs),
(77,1188,o),
(314,1404,o),
(514,1420,q),
(514,1624,l),
(673,1624,l),
(673,1419,l),
(1067,1382,o),
(1137,1018,q),
(907,1018,l),
(864,1202,o),
(673,1233,q),
(673,797,l),
(739,784,ls),
(926,745,o),
(1133,536,o),
(1133,388,qs),
(1133,208,o),
(889,-8,o),
(673,-21,q),
(673,-224,l),
(514,-224,l),
(514,-19,l)
);
},
{
closed = 1;
nodes = (
(788,175,o),
(910,281,o),
(910,371,qs),
(910,538,o),
(680,588,qs),
(673,589,l),
(673,165,l)
);
},
{
closed = 1;
nodes = (
(415,1221,o),
(301,1114,o),
(301,1034,qs),
(301,877,o),
(514,830,q),
(514,1235,l)
);
}
);
width = 1170;
}
);
unicode = 36;
}
{
glyphname = four;
layers = (
{
layerId = m001;
shapes = (
{
closed = 1;
nodes = (
(49,328,l),
(49,506,l),
(676,1400,l),
(941,1400,l),
(941,512,l),
(1153,512,l),
(1153,328,l),
(941,328,l),
(941,0,l),
(722,0,l),
(722,328,l)
);
},
{
closed = 1;
nodes = (
(275,512,l),
(722,512,l),
(722,1150,l)
);
}
);
width = 1178;
}
);
unicode = 52;
}
{
glyphname = B;
layers = (
{
layerId = m001;
shapes = (
{
closed = 1;
nodes = (
(743,609,ls),
(892,609,o),
(986,522,o),
(986,407,cs),
(986,260,o),
(912,201,o),
(773,201,cs),
(225,201,ls),
(221,201,o),
(325,104,o),
(325,108,cs),
(325,1293,ls),
(325,1297,o),
(221,1200,o),
(225,1200,cs),
(700,1200,ls),
(845,1200,o),
(911,1148,o),
(911,1015,cs),
(911,829,o),
(797,778,o),
(690,778,cs),
(523,778,ls),
(469,778,o),
(424,764,o),
(424,709,cs),
(424,654,o),
(469,684,o),
(523,684,cs),
(690,684,ls),
(887,684,o),
(1123,789,o),
(1123,1048,cs),
(1123,1304,o),
(948,1398,o),
(700,1398,cs),
(225,1398,ls),
(165,1398,o),
(113,1353,o),
(113,1293,cs),
(113,108,ls),
(113,48,o),
(165,3,o),
(225,3,cs),
(773,3,ls),
(1017,3,o),
(1198,139,o),
(1198,407,cs),
(1198,635,o),
(1004,807,o),
(743,807,cs),
(523,807,ls),
(469,807,o),
(424,763,o),
(424,708,cs),
(424,653,o),
(469,609,o),
(523,609,cs)
);
}
);
width = 1257;
},
{
annotations = (
{
pos = (970,856);
type = Circle;
width = 130.48206;
}
);
associatedMasterId = m001;
layerId = "B9876E1E-A203-4706-98A5-3528C3794AC1";
name = Stroke;
shapes = (
{
attr = {
lineCapEnd = 2;
lineCapStart = 2;
strokeHeight = 198;
strokeWidth = 212;
};
closed = 0;
nodes = (
(435,709,l),
(690,709,ls),
(861,709,o),
(1017,808,o),
(1017,1015,cs),
(1017,1211,o),
(895,1299,o),
(700,1299,cs),
(225,1299,ls),
(221,1299,o),
(219,1297,o),
(219,1293,cs),
(219,108,ls),
(219,104,o),
(221,102,o),
(225,102,cs),
(773,102,ls),
(963,102,o),
(1092,198,o),
(1092,407,cs),
(1092,578,o),
(949,708,o),
(743,708,cs),
(435,708,l)
);
}
);
visible = 1;
width = 1257;
},
{
associatedMasterId = m001;
layerId = "14FF016B-2523-49B7-B14D-88203F84BD91";
name = Background;
shapes = (
{
closed = 1;
nodes = (
(726,0,ls),
(956,0,o),
(1201,199,o),
(1201,380,qs),
(1201,529,o),
(1036,718,o),
(890,732,q),
(1007,755,o),
(1128,924,o),
(1128,1042,qs),
(1128,1215,o),
(897,1400,o),
(673,1400,qs),
(114,1400,l),
(114,0,l)
);
},
{
closed = 1;
nodes = (
(716,195,qs),
(336,195,l),
(336,617,l),
(712,617,ls),
(852,617,o),
(974,510,o),
(974,399,qs),
(974,195,o)
);
},
{
closed = 1;
nodes = (
(901,805,o),
(666,805,qs),
(336,805,l),
(336,1205,l),
(654,1205,ls),
(901,1205,o),
(901,1007,qs)
);
}
);
visible = 1;
width = 1257;
}
);
unicode = 66;
}
{
glyphname = S;
layers = (
{
layerId = m001;
shapes = (
{
attr = {
strokeHeight = 198;
strokeWidth = 212;
};
closed = 0;
nodes = (
(159,378,l),
(241,167,o),
(394,69,o),
(622,69,cs),
(898,69,o),
(1068,191,o),
(1068,388,cs),
(1068,619,o),
(836,676,o),
(624,717,cs),
(389,762,o),
(206,850,o),
(206,1023,cs),
(206,1198,o),
(353,1340,o),
(629,1340,cs),
(808,1340,o),
(996,1236,o),
(1045,1040,c)
);
}
);
width = 1240;
},
{
associatedMasterId = m001;
layerId = "9A401128-02E7-431A-A0E9-30F7BE68C1A2";
name = Stroke;
shapes = (
{
attr = {
strokeHeight = 198;
strokeWidth = 212;
};
closed = 0;
nodes = (
(159,378,l),
(241,167,o),
(394,69,o),
(622,69,cs),
(898,69,o),
(1068,191,o),
(1068,388,cs),
(1068,619,o),
(836,676,o),
(624,717,cs),
(389,762,o),
(206,850,o),
(206,1023,cs),
(206,1198,o),
(353,1340,o),
(629,1340,cs),
(808,1340,o),
(996,1236,o),
(1045,1040,c)
);
}
);
visible = 1;
width = 1240;
},
{
associatedMasterId = m001;
layerId = "21D4BAD7-9DA1-4CDA-AE33-D5C6813B35AC";
name = Background;
shapes = (
{
closed = 1;
nodes = (
(787,167,o),
(627,167,qs),
(485,167,o),
(313,286,o),
(301,398,q),
(65,398,l),
(89,202,o),
(378,-23,o),
(627,-23,qs),
(882,-23,o),
(1176,199,o),
(1176,385,qs),
(1176,712,o),
(767,797,qs),
(537,845,ls),
(327,889,o),
(327,1034,qs),
(327,1129,o),
(477,1234,o),
(610,1234,qs),
(879,1234,o),
(925,1011,q),
(1157,1011,l),
(1123,1212,o),
(849,1423,o),
(610,1423,qs),
(458,1423,o),
(227,1324,o),
(99,1145,o),
(99,1025,qs),
(99,882,o),
(292,685,o),
(494,644,qs),
(708,601,ls),
(948,552,o),
(948,374,qs),
(948,276,o)
);
}
);
visible = 1;
width = 1240;
}
);
unicode = 83;
}
{
glyphname = bracketleft;
layers = (
{
layerId = m001;
shapes = (
{
closed = 1;
nodes = (
(579,1470,l),
(579,1299,l),
(348,1299,l),
(348,-48,l),
(579,-48,l),
(579,-220,l),
(137,-220,l),
(137,1470,l)
);
}
);
width = 625;
}
);
unicode = 91;
}
{
glyphname = bar;
layers = (
{
layerId = m001;
shapes = (
{
closed = 1;
nodes = (
(352,1460,l),
(352,-230,l),
(137,-230,l),
(137,1460,l)
);
}
);
width = 489;
}
);
unicode = 124;
}
{
glyphname = braceright;
layers = (
{
layerId = m001;
shapes = (
{
closed = 1;
nodes = (
(134,-48,ls),
(279,-48,o),
(279,132,qs),
(279,383,ls),
(279,490,o),
(358,606,o),
(446,625,q),
(358,645,o),
(279,760,o),
(279,867,qs),
(279,1118,ls),
(279,1298,o),
(134,1298,qs),
(46,1298,l),
(46,1470,l),
(152,1470,ls),
(318,1470,o),
(490,1299,o),
(490,1132,qs),
(490,867,ls),
(490,780,o),
(553,710,o),
(630,710,qs),
(673,710,l),
(673,540,l),
(630,540,ls),
(553,540,o),
(490,470,o),
(490,383,qs),
(490,118,ls),
(490,-48,o),
(318,-220,o),
(152,-220,qs),
(46,-220,l),
(46,-48,l)
);
}
);
width = 700;
}
);
unicode = 125;
}
{
glyphname = plusminus;
layers = (
{
layerId = m001;
shapes = (
{
closed = 1;
nodes = (
(474,866,l),
(474,1259,l),
(668,1259,l),
(668,866,l),
(1070,866,l),
(1070,680,l),
(668,680,l),
(668,288,l),
(474,288,l),
(474,680,l),
(72,680,l),
(72,866,l)
);
},
{
closed = 1;
nodes = (
(1070,185,l),
(1070,0,l),
(72,0,l),
(72,185,l)
);
}
);
width = 1170;
}
);
unicode = 177;
}
{
glyphname = paragraph;
layers = (
{
layerId = m001;
shapes = (
{
closed = 1;
nodes = (
(525,621,ls),
(384,621,o),
(175,729,o),
(59,924,o),
(59,1182,o),
(175,1375,o),
(384,1483,o),
(525,1483,qs),
(722,1483,l),
(722,-148,l),
(548,-148,l),
(548,621,l)
);
},
{
closed = 1;
nodes = (
(1055,1483,l),
(1055,-148,l),
(881,-148,l),
(881,1483,l)
);
}
);
width = 1169;
}
);
unicode = 182;
}
{
glyphname = AE;
layers = (
{
layerId = m001;
shapes = (
{
closed = 1;
nodes = (
(1188,1205,l),
(1188,808,l),
(1758,808,l),
(1758,616,l),
(1188,616,l),
(1188,195,l),
(1906,195,l),
(1906,0,l),
(965,0,l),
(965,379,l),
(475,379,l),
(257,0,l),
(8,0,l),
(838,1400,l),
(1890,1400,l),
(1890,1205,l)
);
},
{
closed = 1;
nodes = (
(582,565,l),
(965,565,l),
(965,1229,l)
);
}
);
width = 1990;
}
);
unicode = 198;
}
{
glyphname = Dcroat;
layers = (
{
layerId = m001;
shapes = (
{
closed = 1;
nodes = (
(218,799,l),
(218,1400,l),
(721,1400,ls),
(938,1400,o),
(1253,1221,o),
(1423,905,o),
(1423,495,o),
(1253,179,o),
(938,0,o),
(721,0,qs),
(218,0,l),
(218,605,l),
(28,605,l),
(28,799,l)
);
},
{
closed = 1;
nodes = (
(441,605,l),
(441,199,l),
(720,199,ls),
(867,199,o),
(1078,323,o),
(1192,549,o),
(1192,852,o),
(1078,1077,o),
(867,1201,o),
(720,1201,qs),
(441,1201,l),
(441,799,l),
(774,799,l),
(774,605,l)
);
}
);
width = 1484;
}
);
unicode = 272;
}
{
glyphname = uni0302;
layers = (
{
layerId = m001;
shapes = (
{
closed = 1;
nodes = (
(98,1518,l),
(361,1160,l),
(164,1160,l),
(-3,1381,l),
(-169,1160,l),
(-361,1160,l),
(-98,1518,l)
);
}
);
width = 0;
}
);
unicode = 770;
}
{
glyphname = uni0304;
layers = (
{
layerId = m001;
shapes = (
{
closed = 1;
nodes = (
(336,1356,l),
(336,1202,l),
(-336,1202,l),
(-336,1356,l)
);
}
);
width = 0;
}
);
unicode = 772;
}
{
glyphname = bullet;
layers = (
{
layerId = m001;
shapes = (
{
closed = 1;
nodes = (
(255,921,o),
(445,921,o),
(575,792,o),
(575,601,o),
(445,472,o),
(255,472,o),
(125,601,o),
(125,792,o)
);
}
);
width = 700;
}
);
unicode = 8226;
}
{
glyphname = V_I.Liga.ss01;
layers = (
{
layerId = m001;
shapes = (
{
closed = 1;
nodes = (
(1717,1454,l),
(1624,1418,o),
(1518,1390,o),
(1385,1248,cs),
(1165,1014,o),
(991,701,o),
(815,409,cs),
(801,387,o),
(799,381,o),
(789,381,cs),
(783,381,o),
(779,385,o),
(779,397,cs),
(779,1089,l),
(785,1291,o),
(713,1335,o),
(609,1335,cs),
(471,1335,o),
(255,1231,o),
(107,1161,c),
(107,841,l),
(415,985,ls),
(447,1001,o),
(473,1011,o),
(483,1011,cs),
(511,1011,o),
(511,975,o),
(511,945,cs),
(511,191,ls),
(511,31,o),
(621,-29,o),
(701,-29,cs),
(819,-29,o),
(897,37,o),
(969,143,cs),
(1165,429,o),
(1352,819,o),
(1556,1011,cs),
(1648,1098,o),
(1686,1110,o),
(1717,1129,c)
);
},
{
closed = 1;
nodes = (
(1847,0,l),
(2122,0,l),
(2122,1010,l),
(1847,1010,l)
);
},
{
closed = 1;
nodes = (
(3020,179,o),
(3125,294,o),
(3125,527,cs),
(3125,732,o),
(2990,869,o),
(2859,869,cs),
(2660,869,o),
(2569,696,o),
(2569,502,cs),
(2569,287,o),
(2690,179,o),
(2859,179,cs)
);
},
{
closed = 1;
nodes = (
(2564,1483,l),
(2564,903,l),
(2609,994,o),
(2728,1069,o),
(2882,1069,cs),
(3174,1069,o),
(3373,866,o),
(3373,527,cs),
(3373,156,o),
(3151,-21,o),
(2859,-21,cs),
(2728,-21,o),
(2620,27,o),
(2565,125,c),
(2565,0,l),
(2315,0,l),
(2314,1483,l)
);
},
{
closed = 1;
nodes = (
(3858,625,l),
(4225,625,l),
(4225,776,o),
(4133,865,o),
(4003,865,cs),
(3838,865,o),
(3719,751,o),
(3719,519,cs),
(3719,283,o),
(3816,174,o),
(3991,174,cs),
(4122,174,o),
(4167,207,o),
(4223,306,c),
(4467,306,l),
(4397,63,o),
(4230,-24,o),
(3991,-24,cs),
(3688,-24,o),
(3472,157,o),
(3472,519,cs),
(3472,872,o),
(3711,1064,o),
(4003,1064,cs),
(4299,1064,o),
(4474,866,o),
(4474,605,cs),
(4474,485,o),
(4396,443,o),
(4301,443,cs),
(3858,443,l)
);
},
{
closed = 1;
nodes = (
(4884,869,o),
(4833,804,o),
(4833,739,cs),
(4833,690,o),
(4898,649,o),
(5024,624,cs),
(5236,583,o),
(5436,522,o),
(5436,306,cs),
(5436,115,o),
(5256,-13,o),
(5002,-13,cs),
(4802,-13,o),
(4613,70,o),
(4561,306,c),
(4791,306,l),
(4850,191,o),
(4947,174,o),
(5020,174,cs),
(5115,174,o),
(5189,233,o),
(5189,306,cs),
(5189,386,o),
(5117,406,o),
(4979,433,cs),
(4743,476,o),
(4586,574,o),
(4586,739,cs),
(4586,911,o),
(4741,1058,o),
(5007,1058,cs),
(5169,1058,o),
(5367,992,o),
(5409,751,c),
(5187,749,l),
(5152,839,o),
(5083,869,o),
(5007,869,cs)
);
},
{
closed = 1;
nodes = (
(2092,1150,o),
(2169,1227,o),
(2169,1322,cs),
(2169,1416,o),
(2092,1493,o),
(1998,1493,cs),
(1903,1493,o),
(1826,1416,o),
(1826,1322,cs),
(1826,1227,o),
(1903,1150,o),
(1998,1150,cs)
);
}
);
width = 5600;
}
);
}
{
glyphname = one.dnom;
layers = (
{
layerId = m001;
shapes = (
{
closed = 1;
nodes = (
(45,430,l),
(45,606,l),
(244,749,l),
(435,749,l),
(435,0,l),
(261,0,l),
(261,583,l)
);
}
);
width = 547;
}
);
}
{
glyphname = seven.dnom;
layers = (
{
layerId = m001;
shapes = (
{
closed = 1;
nodes = (
(617,749,l),
(617,622,l),
(287,0,l),
(100,0,l),
(439,607,l),
(24,607,l),
(24,749,l)
);
}
);
width = 625;
}
);
}
{
glyphname = t_t.liga;
layers = (
{
layerId = m001;
shapes = (
{
attr = {
strokeHeight = 180;
strokeWidth = 196;
};
closed = 0;
nodes = (
(320,1311,l),
(320,1076,ls),
(320,991,o),
(262,922,o),
(175,922,c),
(266,922,o),
(320,855,o),
(320,768,cs),
(320,336,ls),
(320,183,o),
(419,76,o),
(558,73,cs),
(705,73,o),
(838,202,o),
(838,336,cs),
(838,423,l)
);
},
{
attr = {
lineCapEnd = "2";
lineCapStart = "2";
strokeHeight = 180;
strokeWidth = 196;
};
closed = 0;
nodes = (
(27,922,l),
(323,922,ls)
);
},
{
attr = {
lineCapEnd = 2;
lineCapStart = "2";
strokeHeight = 180;
strokeWidth = 196;
};
closed = 0;
nodes = (
(1304,73,l),
(1085,73,ls),
(961,73,o),
(838,202,o),
(838,336,cs),
(838,1308,l)
);
},
{
attr = {
lineCapEnd = "2";
lineCapStart = "2";
strokeHeight = 180;
strokeWidth = 196;
};
closed = 0;
nodes = (
(833,1311,l),
(833,1076,ls),
(833,991,o),
(775,922,o),
(688,922,cs),
(479,922,l)
);
},
{
attr = {
lineCapEnd = "2";
lineCapStart = "2";
strokeHeight = 180;
strokeWidth = 196;
};
closed = 0;
nodes = (
(836,922,ls)
);
},
{
attr = {
lineCapEnd = "2";
strokeHeight = 180;
strokeWidth = 196;
};
closed = 0;
nodes = (
(1304,921,ls),
(479,921,l)
);
}
);
width = 1339;
},
{
associatedMasterId = m001;
layerId = "D0256651-FBF7-4DE8-96BB-CA71452ABFF6";
name = Background;
shapes = (
{
closed = 1;
nodes = (
(832,843,l),
(687,843,l),
(687,1014,l),
(832,1014,l),
(832,1310,l),
(1044,1310,l),
(1044,1014,l),
(1296,1014,l),
(1296,843,l),
(1044,843,l),
(1044,345,ls),
(1044,245,o),
(1115,168,o),
(1210,168,qs),
(1229,168,o),
(1274,171,o),
(1296,175,q),
(1296,0,l),
(1260,-6,o),
(1198,-13,o),
(1166,-13,qs),
(993,-13,o),
(832,144,o),
(832,316,qs)
);
},
{
closed = 1;
nodes = (
(427,843,l),
(427,345,ls),
(427,245,o),
(498,168,o),
(593,168,qs),
(612,168,o),
(656,171,o),
(679,175,q),
(679,0,l),
(643,-6,o),
(580,-13,o),
(549,-13,qs),
(375,-13,o),
(215,144,o),
(215,316,qs),
(215,843,l),
(25,843,l),
(25,1014,l),
(215,1014,l),
(215,1310,l),
(427,1310,l),
(427,1014,l),
(617,1014,l),
(617,843,l)
);
}
);
visible = 1;
width = 1335;
}
);
}
{
glyphname = uni0328.cap;
layers = (
{
layerId = m001;
shapes = (
{
closed = 1;
nodes = (
(-393,-144,o),
(-222,10,o),
(-39,70,q),
(0,0,l),
(-112,-56,o),
(-214,-158,o),
(-214,-214,qs),
(-214,-308,o),
(-91,-308,qs),
(-45,-308,o),
(1,-297,q),
(1,-429,l),
(-58,-445,o),
(-129,-445,qs),
(-254,-445,o),
(-393,-334,o),
(-393,-240,qs)
);
}
);
width = 0;
}
);
}
{
glyphname = zero.dnom;
layers = (
{
layerId = m001;
shapes = (
{
closed = 1;
nodes = (
(236,772,o),
(555,772,o),
(737,560,o),
(737,189,o),
(555,-23,o),
(236,-23,o),
(54,189,o),
(54,560,o)
);
},
{
closed = 1;
nodes = (
(235,252,o),
(317,123,o),
(474,123,o),
(557,252,o),
(557,374,qs),
(557,626,o),
(235,626,o),
(235,374,qs)
);
}
);
width = 791;
}
);
}
